# xmcd CD database file
# Copyright (C) 1995-1998 Ti Kan
#
# Track frame offsets:
#	150
#	11107
#	20480
#	33025
#	44805
#	55980
#	66795
#	75767
#	86047
#	98470
#	106900
#	117685
#	127792
#	137822
#	150390
#	161562
#	171370
#	182795
#	192707
#	201897
#
# Disc length: 2827 seconds
#
# Revision: 4
# Processed by: cddbd v1.5.1PL2 Copyright (c) Steve Scherf et al.
# Submitted via: CDex 1.30Release
#
DISCID=0b0b0914
DTITLE=Johnny Cash - Get Rhythm
DYEAR=1992
DGENRE=Country
TTITLE0=Cry! Cry! Cry!
TTITLE1=Luther Played The Boogie
TTITLE2=Folsom Prison Blues
TTITLE3=So Doggone Lonesome
TTITLE4=Mean Eyed Cat
TTITLE5=Wide Open Road
TTITLE6=Two Timin Woman
TTITLE7=There You Go
TTITLE8=I Walk The Line
TTITLE9=Country Boy
TTITLE10=Train Of Love
TTITLE11=Get Rhythm
TTITLE12=Hey, Porter
TTITLE13=Give My Love To Rose
TTITLE14=Oh, Lonesome Me
TTITLE15=Rock Island Line
TTITLE16=Big River
TTITLE17=Ballad Of A Teenage Queen
TTITLE18=Blue Train
TTITLE19=You Win Again
EXTD=YEAR: 1992 ID3G:   2
EXTT0=
EXTT1=
EXTT2=
EXTT3=
EXTT4=
EXTT5=
EXTT6=
EXTT7=
EXTT8=
EXTT9=
EXTT10=
EXTT11=
EXTT12=
EXTT13=
EXTT14=
EXTT15=
EXTT16=
EXTT17=
EXTT18=
EXTT19=
PLAYORDER=
